# xmcd
# 
# Track frame offsets:
#     150
#     13489
#     24048
#     40267
#     45792
#     65276
#     79317
#     103796
#     117856
#     134772
#     155799
#     168411
#     186058
#     204476
#     227029
#     248182
# 
# Disc length: 3550
# 
# Revision: 2
# Processed by: cddbd v1.5.2PL0 Copyright (c) Steve Scherf et al.
# Submitted via: fre:ac v1.0.31
# 
DISCID=d40ddc10
DTITLE=Fernando Delgadillo - Matutina
DYEAR=2004
DGENRE=Canción Informal
TTITLE0=Los Cantares De Un Gusano
TTITLE1=Matutina
TTITLE2=Ensayo De Una Boca
TTITLE3=Primeras Impresiones
TTITLE4=No Me Pidas Ser Tu Amigo
TTITLE5=Despierta Al Intersticio
TTITLE6=Un Poco Mayor
TTITLE7=A Una Mariposa
TTITLE8=Mis Hojas De Noviembre
TTITLE9=Después De Las Seis
TTITLE10=El Viento En Las Ramas
TTITLE11=Modelos Antiguos
TTITLE12=A La Pirámide Del Sol
TTITLE13=El Deseo De Clara
TTITLE14=La Casa De Mi Abuela
TTITLE15=Si Se Va Por Autobús
EXTD=
EXTT0=
EXTT1=
EXTT2=
EXTT3=
EXTT4=
EXTT5=
EXTT6=
EXTT7=
EXTT8=
EXTT9=
EXTT10=
EXTT11=
EXTT12=
EXTT13=
EXTT14=
EXTT15=
PLAYORDER=
